# xmcd
#
# Track frame offsets: 
#        150
#        26417
#        41981
#        64052
#        97130
#        113201
#        134987
#        154058
#        168359
#        185699
#        202562
#        230795
#        254450
#
# Disc length: 3655 seconds
#
# Revision: 0
# Processed by: cddbd v1.5.2PL0 Copyright (c) Steve Scherf et al.
# Submitted via: ExactAudioCopy v0.95b4
#
DISCID=be0e450d
DTITLE=Various Artist - Jazz Heat Bongo Beat! - A Ricky-Tick Records Compilat
DTITLE=ion
DYEAR=2009
DGENRE=Jazz
TTITLE0=Timo Lassy - Early Move
TTITLE1=Five Corners Quintet - Skinny Dipping
TTITLE2=LTC - Serenata
TTITLE3=Five Corners Quintet - Three Corners (Nicola Conte's Sahib's S
TTITLE3=amba Version)
TTITLE4=Kerkko Koskinen, Verneri Pohjola and UMO Jazz Orchestra - Sparkl
TTITLE4=ing Arsenic
TTITLE5=Astro Can Caravan - Athatoolagooloo
TTITLE6=Dalindèo - Go Ahead, Float
TTITLE7=Stance Brothers - Pick 'n' Roll
TTITLE8=Auteur Jazz - Two Jaguars In Warsaw
TTITLE9=Povo - City Blues
TTITLE10=Jukka Eskola - Chip 'n' Charge
TTITLE11=Five Corners Quintet Feat. Mark Murphy - Kerouac Days In Mont
TTITLE11=ana
TTITLE12=Olli Ojajärvi Trio - Once Upon A Summertime
EXTD=
EXTT0=
EXTT1=
EXTT2=
EXTT3=
EXTT4=
EXTT5=
EXTT6=
EXTT7=
EXTT8=
EXTT9=
EXTT10=
EXTT11=
EXTT12=
PLAYORDER=
